PathFileType	4	(X/Y/Z)	18_coords_data.trc
DataRate	CameraRate	NumFrames	NumMarkers	Units	OrigDataRate	OrigDataStartFrame	OrigNumFrames
30.0	30.0	9	21	m	30.0	34	66
Frame#	Time	THUMB_TIP	THUMB_IP	THUMB_MCP	THUMB_CMC	INDEX_TIP	INDEX_DIP	INDEX_PIP	INDEX_MCP	MIDDLE_TIP	MIDDLE_DIP	MIDDLE_PIP	MIDDLE_MCP	RING_TIP	RING_DIP	RING_PIP	RING_MCP	PINKY_TIP	PINKY_DIP	PINKY_PIP	PINKY_MCP	WRIST
X1	Y1	Z1	X2	Y2	Z2	X3	Y3	Z3	X4	Y4	Z4	X5	Y5	Z5	X6	Y6	Z6	X7	Y7	Z7	X8	Y8	Z8	X9	Y9	Z9	X10	Y10	Z10	X11	Y11	Z11	X12	Y12	Z12	X13	Y13	Z13	X14	Y14	Z14	X15	Y15	Z15	X16	Y16	Z16	X17	Y17	Z17	X18	Y18	Z18	X19	Y19	Z19	X20	Y20	Z20	X21	Y21	Z21
33	1.1	0.018770000457763673	-0.049795799255371094	0.9359929809570312	0.013418600082397461	-0.030634899139404297	0.9531710205078125	-0.001054890036582946	-0.01737190055847168	0.9753270263671875	-0.008189800262451172	0.011407199859619141	0.99339501953125	0.0393478012084961	0.01009469985961914	0.8669359741210938	0.02341950035095215	0.009030289649963379	0.8819580078125	0.009335650444030761	0.008273240089416503	0.8998560180664062	-0.0024485700130462643	0.008879090309143066	0.9346630249023438	0.03822859954833984	0.05218629837036133	0.8546160278320313	0.024723400115966798	0.047013401031494144	0.8739810180664063	0.010020099639892577	0.040692501068115235	0.8967219848632813	-0.0037932000160217283	0.0325630989074707	0.932927001953125	0.04928820037841797	0.06832029724121094	0.8780960083007813	0.03338259887695313	0.06515859985351563	0.8937429809570312	0.01627910041809082	0.06086930084228516	0.9120540161132813	0.000650825023651123	0.05144179916381836	0.9408870239257813	0.054181800842285154	0.09311830139160156	0.9262080078125	0.03908290100097656	0.08615249633789063	0.9344749755859375	0.02513089942932129	0.07897830200195312	0.9423499755859375	0.006443930149078369	0.0658844985961914	0.95510400390625	-0.030930299758911133	0.0360098991394043	1.0071400146484375
34	1.1333333333333333	0.018718700408935546	-0.04962459945678711	0.9359949951171875	0.013471500396728515	-0.030434999465942383	0.95314599609375	-0.00099177998304367	-0.01720509910583496	0.9753270263671875	-0.00801846981048584	0.011646300315856934	0.9934249877929687	0.041688800811767575	0.010628999710083008	0.8686859741210937	0.02514859962463379	0.009490389823913575	0.8828300170898438	0.010351300239562988	0.008578089714050293	0.8998519897460937	-0.0024648199081420898	0.009068710327148437	0.934781982421875	0.03795800018310547	0.05222200012207031	0.8545050048828124	0.024577299118041993	0.04708819961547851	0.8739039916992187	0.009890469551086425	0.04077159881591797	0.8966409912109375	-0.003822890043258667	0.032709400177001954	0.9328300170898437	0.04860879898071289	0.06848970031738282	0.8775910034179687	0.032841701507568356	0.06527729797363281	0.8932990112304687	0.01592640018463135	0.061034400939941405	0.9117650146484375	0.000633387982845306	0.05158769989013672	0.9409660034179688	0.05371369934082031	0.0933948974609375	0.9256270141601562	0.03864130020141601	0.08647859954833985	0.9339970092773437	0.0247273006439209	0.07924169921875	0.94189599609375	0.006347599983215332	0.06625820159912109	0.9549140014648437	-0.030857200622558593	0.0362406997680664	1.0074400024414063
35	1.1666666666666667	0.018914899826049804	-0.0491510009765625	0.9359660034179688	0.013583499908447266	-0.029995500564575197	0.9532039794921875	-0.0009807710051536562	-0.016856599807739257	0.9754019775390625	-0.008106490135192872	0.01193690013885498	0.993426025390625	0.045041500091552736	0.01138070011138916	0.8714840087890625	0.02759779930114746	0.010182700157165527	0.8842769775390625	0.011531200408935547	0.009207220077514648	0.90060302734375	-0.002543109893798828	0.009300820350646973	0.9347479858398438	0.03879840087890625	0.052163299560546876	0.85493798828125	0.025225700378417967	0.047112300872802736	0.8741959838867187	0.010276399612426757	0.04092440032958984	0.8966859741210937	-0.003945719957351684	0.03294649887084961	0.93289697265625	0.04865000152587891	0.0684126968383789	0.8774359741210938	0.03282149887084961	0.06538089752197265	0.8932579956054687	0.01579819965362549	0.061189601898193356	0.9116959838867188	0.00039946201443672103	0.05185129928588867	0.9407689819335937	0.05339189910888672	0.09339469909667969	0.9249819946289063	0.03827389907836914	0.08661470031738282	0.9334970092773438	0.024327299118041993	0.07945649719238282	0.9415579833984375	0.006056879997253418	0.06658029937744141	0.9547940063476562	-0.03082699966430664	0.03650130081176758	1.0074000244140624
36	1.2	0.02010689926147461	-0.04791859817504883	0.9355079956054687	0.014199199676513672	-0.028987699508666993	0.952927001953125	-0.0007021949887275691	-0.016274499893188476	0.975197998046875	-0.008109180450439454	0.012410400390625	0.993385986328125	0.04856349945068359	0.01256879997253418	0.8748359985351563	0.03007729911804199	0.011167900085449219	0.88597900390625	0.012882699966430664	0.009904560089111327	0.901072998046875	-0.002671169996261596	0.00967926025390625	0.93460302734375	0.04086119842529297	0.05231900024414062	0.8561630249023438	0.02671890068054199	0.04740810012817383	0.8749000244140624	0.010993200302124024	0.04130429840087891	0.896916015625	-0.004236040115356446	0.03329399871826172	0.9327880249023438	0.04937200164794922	0.06833429718017578	0.8781810302734375	0.033355998992919925	0.06560320281982422	0.8935789794921875	0.016063199996948243	0.061420299530029296	0.9117360229492187	-0.00011933600157499301	0.052228099822998045	0.9406370239257813	0.05333489990234375	0.0930426025390625	0.92447998046875	0.0379900016784668	0.0865261001586914	0.9329929809570312	0.02402149963378906	0.07963980102539063	0.9411729736328125	0.005840050220489502	0.06698290252685547	0.9547969970703125	-0.030621400833129885	0.03677809906005859	1.0070599975585937
37	1.2333333333333334	0.024304100036621094	-0.0440629997253418	0.9340189819335938	0.016374000549316405	-0.026180599212646486	0.95202197265625	0.00044932401180267307	-0.014931400299072266	0.9746820068359375	-0.007600540161132812	0.013075400352478027	0.9930490112304687	0.052049598693847655	0.014198800086975098	0.8798489990234375	0.03238830184936523	0.012566499710083008	0.8884539794921875	0.013829799652099609	0.01094029998779297	0.9015989990234375	-0.003849100112915039	0.009925000190734863	0.9341069946289062	0.044746299743652344	0.05184000015258789	0.8591409912109375	0.02929910087585449	0.047221199035644534	0.8766270141601562	0.011893600463867187	0.0414370002746582	0.8972860107421875	-0.005578460216522217	0.03359820175170898	0.9324249877929688	0.051491199493408205	0.06734590148925781	0.8800549926757812	0.03466680145263672	0.06499089813232421	0.8943709716796875	0.016125999450683593	0.06145249938964844	0.9119630126953125	-0.001588449954986572	0.052504901885986326	0.9402169799804687	0.05357529830932617	0.0912406005859375	0.9245960083007813	0.03782440185546875	0.08548400115966796	0.9326900024414062	0.02327739906311035	0.07917189788818359	0.9404409790039062	0.004648109912872314	0.0673510971069336	0.9544619750976563	-0.03038409996032715	0.03707929992675781	1.0071699829101564
38	1.2666666666666666	0.03053529930114746	-0.03643820190429688	0.9313250122070312	0.019863500595092773	-0.020949899673461916	0.9501270141601562	0.002604680061340332	-0.01243910026550293	0.9732659912109375	-0.00688090991973877	0.014188599586486817	0.992281005859375	0.054772598266601566	0.016352699279785155	0.8852899780273438	0.03423619842529297	0.014656900405883789	0.891656005859375	0.01427079963684082	0.012584400177001954	0.9025070190429687	-0.0059946498870849605	0.010366600036621093	0.9332540283203125	0.05157809829711914	0.050158199310302735	0.8657869873046875	0.03364120101928711	0.04644089889526367	0.8801209716796875	0.013250900268554687	0.04154280090332031	0.898448974609375	-0.008050020217895509	0.03402579879760742	0.9316719970703125	0.0550994987487793	0.0654365005493164	0.8849630126953125	0.037020698547363284	0.06421620178222656	0.89693701171875	0.016679399490356444	0.061561298370361325	0.9123699951171875	-0.004077330112457276	0.05306700134277344	0.9398209838867188	0.054305999755859376	0.0875958023071289	0.9262890014648437	0.03769179916381836	0.0837113037109375	0.9329229736328125	0.02225279998779297	0.07871089935302734	0.94	0.0025572900772094717	0.06812319946289062	0.9535800170898437	-0.030212299346923828	0.037226799011230466	1.0067100219726564
39	1.3	0.03674050140380859	-0.02686090087890625	0.9293870239257812	0.023412300109863282	-0.014463800430297852	0.9487260131835937	0.0051679301261901844	-0.009050189971923828	0.9719959716796875	-0.005806660175323487	0.015772199630737303	0.9914459838867188	0.05626940155029297	0.01767799949645996	0.8902080078125	0.03533089828491211	0.015968500137329103	0.8942550048828125	0.014242600440979004	0.013629099845886231	0.9030679931640625	-0.00788631010055542	0.010604000091552735	0.9327139892578125	0.05843320083618164	0.04756159973144531	0.8742130126953125	0.03821089935302734	0.04522579956054688	0.8852830200195313	0.014946900367736816	0.04140840148925781	0.9003389892578125	-0.010241900444030762	0.03458359909057617	0.9312410278320312	0.059301799774169925	0.06265840148925782	0.8911640014648438	0.0398760986328125	0.06279399871826172	0.9003569946289063	0.017273300170898436	0.06135319900512695	0.9131010131835937	-0.006287290096282959	0.053572101593017576	0.9390800170898438	0.05541510009765625	0.08322810363769531	0.9292949829101562	0.03788690185546875	0.08149169921875	0.933968994140625	0.021318199157714844	0.07787899780273437	0.9395269775390624	0.000230014994740486	0.06886109924316407	0.95247998046875	-0.030012399673461913	0.03752080154418945	1.006510009765625
40	1.3333333333333333	0.04042570114135742	-0.01895709991455078	0.9284149780273437	0.025646699905395507	-0.009236860275268554	0.947906005859375	0.0072671399116516116	-0.00612539005279541	0.971906005859375	-0.004482150077819824	0.01741379928588867	0.9912529907226563	0.05663869857788086	0.01810260009765625	0.8930330200195312	0.035420799255371095	0.016361099243164062	0.8957969970703125	0.013982500076293945	0.01400380039215088	0.9035479736328125	-0.009200590133666992	0.01072920036315918	0.932948974609375	0.059311599731445314	0.04606750106811523	0.8772109985351563	0.03862120056152344	0.04439469909667969	0.8868579711914063	0.014328900337219239	0.0410099983215332	0.9004340209960937	-0.011793199539184571	0.0348120002746582	0.9312219848632812	0.059894500732421876	0.06086299896240235	0.8938829956054688	0.040289901733398435	0.06176330184936524	0.901625	0.016808300018310546	0.06107300186157227	0.9132420043945313	-0.007395430088043213	0.05377460098266602	0.93885498046875	0.056520999908447264	0.0799208984375	0.9318809814453125	0.038878299713134765	0.07940390014648438	0.9352030029296875	0.021688899993896484	0.07701439666748047	0.9397269897460937	-0.00048171898722648606	0.06907350158691407	0.9520360107421875	-0.029613399505615236	0.03806809997558594	1.006739990234375
41	1.3666666666666667	0.04261270141601563	-0.01399470043182373	0.928114013671875	0.02720949935913086	-0.005753389835357666	0.9479810180664062	0.008543350219726563	-0.003981519937515259	0.9718560180664062	-0.0038167099952697747	0.018993600845336914	0.9912890014648438	0.055966701507568356	0.01859709930419922	0.8943599853515625	0.034729000091552734	0.01667650032043457	0.8965120239257812	0.013005000114440918	0.01430519962310791	0.9038060302734375	-0.010386799812316895	0.010917599678039552	0.9331710205078125	0.05804159927368164	0.045629901885986326	0.8779500122070313	0.03707410049438477	0.04424300003051758	0.8871420288085937	0.012801400184631348	0.04111420059204102	0.9003289794921875	-0.013206000328063966	0.03497100067138672	0.931072021484375	0.05926039886474609	0.06015700149536133	0.8954979858398437	0.03950540161132812	0.06156560134887695	0.9023900146484375	0.015811599731445313	0.06122570037841797	0.9130859985351563	-0.008880419731140137	0.05408520126342774	0.9388109741210937	0.05605179977416992	0.07829959869384766	0.9326489868164063	0.03845560073852539	0.07849330139160156	0.9352730102539063	0.020996299743652344	0.07675099945068359	0.9394559936523438	-0.001626940011978149	0.06945390319824218	0.9516749877929688	-0.029455400466918944	0.038887100219726564	1.0069099731445312
